<?xml version="1.0" standalone="no"?>
<!DOCTYPE svg PUBLIC "-//W3C//DTD SVG 20010904//EN"
 "http://www.w3.org/TR/2001/REC-SVG-20010904/DTD/svg10.dtd">
<svg version="1.0" xmlns="http://www.w3.org/2000/svg"
 width="97.000000pt" height="97.000000pt" viewBox="0 0 97.000000 97.000000"
 preserveAspectRatio="xMidYMid meet">
<metadata>
Created by potrace 1.11, written by Peter Selinger 2001-2013
</metadata>
<g transform="translate(0.000000,97.000000) scale(0.100000,-0.100000)"
fill="#000000" stroke="none">
<path d="M368 949 c-104 -24 -223 -110 -284 -205 -59 -91 -77 -163 -72 -286 4
-100 7 -112 43 -185 149 -303 554 -366 781 -121 288 312 71 812 -350 807 -44
-1 -98 -5 -118 -10z m285 -107 c161 -75 261 -258 228 -419 -35 -176 -161 -302
-334 -334 -166 -31 -335 59 -414 219 -36 73 -38 80 -38 176 0 88 4 108 27 158
29 63 101 146 155 179 109 68 259 76 376 21z"/>
<path d="M377 785 c-86 -33 -175 -125 -197 -204 -5 -20 -10 -67 -10 -106 0
-124 73 -235 189 -289 71 -32 198 -29 268 7 117 61 177 159 178 292 0 67 -4
89 -28 137 -31 62 -84 116 -149 149 -55 29 -193 36 -251 14z m184 -77 c49 -14
114 -69 138 -117 68 -134 -1 -295 -144 -337 -154 -44 -305 68 -305 226 0 163
153 276 311 228z"/>
<path d="M393 611 c-50 -37 -67 -76 -61 -146 5 -62 37 -106 95 -131 108 -47
232 46 220 165 -13 120 -155 184 -254 112z"/>
</g>
</svg>
